<?xml version="1.0" encoding="UTF-8"?>
<svg id="Layer_1" xmlns="http://www.w3.org/2000/svg" version="1.1" xmlns:xlink="http://www.w3.org/1999/xlink" xmlns:xodm="http://www.corel.com/coreldraw/odm/2003" viewBox="0 0 510.3 95">
  <!-- Generator: Adobe Illustrator 29.2.0, SVG Export Plug-In . SVG Version: 2.1.0 Build 108)  -->
  <defs>
    <style>
      .st0 {
        fill: #0047ba;
        fill-rule: evenodd;
      }
    </style>
  </defs>
  <g id="Livello_x5F_1">
    <g id="_2834984808384">
      <path class="st0" d="M0,27.7h153.4v44c0,5.5,3.6,7.9,8.7,7.9h19.5v15.3h-24.5c-20.1,0-30.2-10.7-30.2-27.2v-25h-16.2c-1.3,4.8-4.1,9.1-8.1,12.2h15.4c-9.3,25.9-21.9,39.1-51,39.9H0V27.7h0ZM68.6,80.1c11.8,0,21.5-5.8,22.6-12.9H22.3v12.9h46.3ZM22.3,40.5v14.6h51.7c9.3,0,15.7-5.2,16.2-14.6H22.3Z"/>
      <path class="st0" d="M416.6,95v-39.6c0-4.9-1.6-11.2-4.7-15l-25.4,28.6L442.1,0l-68.6,77.2L436,0l-69,77.8L429.6,0l-68.1,77.8L423,0l-67.3,77.2L417.7,0l-66.8,75L412,0l-64.8,73.3L405.9,0l-62.7,70.5L400.1,0l-59.3,65.3L394.4,0l-48.9,52.2,19.4-24.5h-49.9v39.8c0,18.2,16.8,27.4,28.8,27.4h72.8Z"/>
      <polygon class="st0" points="129.4 22.5 153.9 22.5 153.9 7.5 129.4 7.5 129.4 22.5"/>
      <path class="st0" d="M160.8,27.7h149.7c-.7,13.6-2.9,25.3-16.4,32,11.8,5.5,14.4,14.2,14.4,24.5v10.8h-15.5v-10.6c0-10.9-7.6-17.3-16.1-17.3h-25.2v27.9h-26v-42.2h50.8c7-.2,13.6-3.9,14.4-10.8h-76.6v53h-26.3v-53h-27.1v-14.3h0Z"/>
      <path class="st0" d="M421.4,27.7v67.3h16v-53h35.7c7.4.2,10.8,4.5,10.9,11.5v41.5h26.3v-36.4c0-18.1-6.9-30.8-26.2-30.8h-62.7q0-.1,0-.1Z"/>
    </g>
  </g>
</svg>